<svg xmlns="http://www.w3.org/2000/svg" viewBox="0 0 640 360" width="640" height="360" role="img">
  <rect width="640" height="360" fill="#FFFFFF"/>
  <text x="320" y="24" text-anchor="middle" font-size="14" font-weight="700" fill="#1A9E9E" font-family="Helvetica, Arial, sans-serif">How waste paper is recycled into new paper</text>
  
  <g>
    <rect x="20" y="52" width="136" height="76" rx="8" fill="#FFFFFF" stroke="#5A6478" stroke-width="1.2"/>
    <circle cx="37" cy="70" r="11" fill="#1A9E9E"/>
    <text x="37" y="74" text-anchor="middle" font-size="12" font-weight="700" fill="#FFFFFF" font-family="Helvetica, Arial, sans-serif">1</text>
    <rect x="122" y="60" width="19" height="6" rx="1" stroke="#5A6478" stroke-width="1.3" fill="none" stroke-linecap="round"/><rect x="123" y="67" width="19" height="6" rx="1" stroke="#5A6478" stroke-width="1.3" fill="none" stroke-linecap="round"/><rect x="124" y="74" width="19" height="6" rx="1" stroke="#5A6478" stroke-width="1.3" fill="none" stroke-linecap="round"/>
    <text x="88" y="100" text-anchor="middle" font-size="12.5" fill="#5A6478" font-family="Helvetica, Arial, sans-serif">Waste paper</text>
    <text x="88" y="116" text-anchor="middle" font-size="12.5" fill="#5A6478" font-family="Helvetica, Arial, sans-serif">collected</text>
  </g>
  <g>
    <rect x="175" y="52" width="136" height="76" rx="8" fill="#FFFFFF" stroke="#5A6478" stroke-width="1.2"/>
    <circle cx="192" cy="70" r="11" fill="#1A9E9E"/>
    <text x="192" y="74" text-anchor="middle" font-size="12" font-weight="700" fill="#FFFFFF" font-family="Helvetica, Arial, sans-serif">2</text>
    <path d="M276,70 H285 M285,70 L295,62 M285,70 L295,78" stroke="#5A6478" stroke-width="1.3" fill="none" stroke-linecap="round"/><rect x="294" y="59" width="6" height="6" rx="1" stroke="#5A6478" stroke-width="1.3" fill="none" stroke-linecap="round"/><rect x="294" y="75" width="6" height="6" rx="1" stroke="#5A6478" stroke-width="1.3" fill="none" stroke-linecap="round"/>
    <text x="243" y="100" text-anchor="middle" font-size="12.5" fill="#5A6478" font-family="Helvetica, Arial, sans-serif">Sorted by grade</text>
    <text x="243" y="116" text-anchor="middle" font-size="12.5" fill="#5A6478" font-family="Helvetica, Arial, sans-serif">and quality</text>
  </g>
  <g>
    <rect x="330" y="52" width="136" height="76" rx="8" fill="#FFFFFF" stroke="#5A6478" stroke-width="1.2"/>
    <circle cx="347" cy="70" r="11" fill="#1A9E9E"/>
    <text x="347" y="74" text-anchor="middle" font-size="12" font-weight="700" fill="#FFFFFF" font-family="Helvetica, Arial, sans-serif">3</text>
    <rect x="431" y="60" width="22" height="8" rx="1.5" stroke="#5A6478" stroke-width="1.3" fill="none" stroke-linecap="round"/><path d="M434,70 V80 M439,70 V78 M444,70 V80 M449,70 V78" stroke="#5A6478" stroke-width="1.3" fill="none" stroke-linecap="round"/>
    <text x="398" y="100" text-anchor="middle" font-size="12.5" fill="#5A6478" font-family="Helvetica, Arial, sans-serif">Shredded into</text>
    <text x="398" y="116" text-anchor="middle" font-size="12.5" fill="#5A6478" font-family="Helvetica, Arial, sans-serif">small pieces</text>
  </g>
  <g>
    <rect x="485" y="52" width="136" height="76" rx="8" fill="#FFFFFF" stroke="#5A6478" stroke-width="1.2"/>
    <circle cx="502" cy="70" r="11" fill="#1A9E9E"/>
    <text x="502" y="74" text-anchor="middle" font-size="12" font-weight="700" fill="#FFFFFF" font-family="Helvetica, Arial, sans-serif">4</text>
    <path d="M587,61 V75 a10,7 0 0 0 20,0 V61" stroke="#5A6478" stroke-width="1.3" fill="none" stroke-linecap="round"/><path d="M590,69 q3.5,-4 7,0 t7,0" stroke="#5A6478" stroke-width="1.3" fill="none" stroke-linecap="round"/>
    <text x="553" y="100" text-anchor="middle" font-size="12.5" fill="#5A6478" font-family="Helvetica, Arial, sans-serif">Mixed with water</text>
    <text x="553" y="116" text-anchor="middle" font-size="12.5" fill="#5A6478" font-family="Helvetica, Arial, sans-serif">to form pulp</text>
  </g>
  <g>
    <rect x="485" y="210" width="136" height="76" rx="8" fill="#FFFFFF" stroke="#5A6478" stroke-width="1.2"/>
    <circle cx="502" cy="228" r="11" fill="#1A9E9E"/>
    <text x="502" y="232" text-anchor="middle" font-size="12" font-weight="700" fill="#FFFFFF" font-family="Helvetica, Arial, sans-serif">5</text>
    <rect x="586" y="219" width="22" height="18" rx="2" stroke="#5A6478" stroke-width="1.3" fill="none" stroke-linecap="round"/><path d="M593,219 V237 M600,219 V237 M586,225 H608 M586,231 H608" stroke="#5A6478" stroke-width="1.3" fill="none" stroke-linecap="round"/>
    <text x="553" y="258" text-anchor="middle" font-size="12.5" fill="#5A6478" font-family="Helvetica, Arial, sans-serif">Screened: staples</text>
    <text x="553" y="274" text-anchor="middle" font-size="12.5" fill="#5A6478" font-family="Helvetica, Arial, sans-serif">and glue removed</text>
  </g>
  <g>
    <rect x="330" y="210" width="136" height="76" rx="8" fill="#FFFFFF" stroke="#5A6478" stroke-width="1.2"/>
    <circle cx="347" cy="228" r="11" fill="#1A9E9E"/>
    <text x="347" y="232" text-anchor="middle" font-size="12" font-weight="700" fill="#FFFFFF" font-family="Helvetica, Arial, sans-serif">6</text>
    <path d="M432,219 V232 a10,6 0 0 0 20,0 V219" stroke="#5A6478" stroke-width="1.3" fill="none" stroke-linecap="round"/><circle cx="438" cy="226" r="2.4" stroke="#5A6478" stroke-width="1.3" fill="none" stroke-linecap="round"/><circle cx="445" cy="230" r="1.8" stroke="#5A6478" stroke-width="1.3" fill="none" stroke-linecap="round"/><circle cx="448" cy="223" r="2.8" stroke="#5A6478" stroke-width="1.3" fill="none" stroke-linecap="round"/>
    <text x="398" y="258" text-anchor="middle" font-size="12.5" fill="#5A6478" font-family="Helvetica, Arial, sans-serif">De-inked in</text>
    <text x="398" y="274" text-anchor="middle" font-size="12.5" fill="#5A6478" font-family="Helvetica, Arial, sans-serif">flotation tanks</text>
  </g>
  <g>
    <rect x="175" y="210" width="136" height="76" rx="8" fill="#FFFFFF" stroke="#5A6478" stroke-width="1.2"/>
    <circle cx="192" cy="228" r="11" fill="#1A9E9E"/>
    <text x="192" y="232" text-anchor="middle" font-size="12" font-weight="700" fill="#FFFFFF" font-family="Helvetica, Arial, sans-serif">7</text>
    <circle cx="281" cy="225" r="6" stroke="#5A6478" stroke-width="1.3" fill="none" stroke-linecap="round"/><circle cx="294" cy="225" r="6" stroke="#5A6478" stroke-width="1.3" fill="none" stroke-linecap="round"/><path d="M275,235 H300" stroke="#5A6478" stroke-width="1.3" fill="none" stroke-linecap="round"/>
    <text x="243" y="258" text-anchor="middle" font-size="12.5" fill="#5A6478" font-family="Helvetica, Arial, sans-serif">Pressed and dried</text>
    <text x="243" y="274" text-anchor="middle" font-size="12.5" fill="#5A6478" font-family="Helvetica, Arial, sans-serif">on heated rollers</text>
  </g>
  <g>
    <rect x="20" y="210" width="136" height="76" rx="8" fill="#FFFFFF" stroke="#5A6478" stroke-width="1.2"/>
    <circle cx="37" cy="228" r="11" fill="#1A9E9E"/>
    <text x="37" y="232" text-anchor="middle" font-size="12" font-weight="700" fill="#FFFFFF" font-family="Helvetica, Arial, sans-serif">8</text>
    <circle cx="130" cy="228" r="8.5" stroke="#5A6478" stroke-width="1.3" fill="none" stroke-linecap="round"/><circle cx="130" cy="228" r="3" stroke="#5A6478" stroke-width="1.3" fill="none" stroke-linecap="round"/><path d="M138,220 h7 v16 h-7" stroke="#5A6478" stroke-width="1.3" fill="none" stroke-linecap="round"/>
    <text x="88" y="258" text-anchor="middle" font-size="12.5" fill="#5A6478" font-family="Helvetica, Arial, sans-serif">Cut, rolled and</text>
    <text x="88" y="274" text-anchor="middle" font-size="12.5" fill="#5A6478" font-family="Helvetica, Arial, sans-serif">sent to printers</text>
  </g><path d="M156,90 H167" stroke="#F2A65A" stroke-width="2.2" stroke-linecap="round" fill="none"/><polygon points="175,90 167,85 167,95" fill="#F2A65A"/><path d="M311,90 H322" stroke="#F2A65A" stroke-width="2.2" stroke-linecap="round" fill="none"/><polygon points="330,90 322,85 322,95" fill="#F2A65A"/><path d="M466,90 H477" stroke="#F2A65A" stroke-width="2.2" stroke-linecap="round" fill="none"/><polygon points="485,90 477,85 477,95" fill="#F2A65A"/><path d="M553,128 V202" stroke="#F2A65A" stroke-width="2.2" stroke-linecap="round" fill="none"/><polygon points="553,210 548,202 558,202" fill="#F2A65A"/><path d="M485,248 H474" stroke="#F2A65A" stroke-width="2.2" stroke-linecap="round" fill="none"/><polygon points="466,248 474,243 474,253" fill="#F2A65A"/><path d="M330,248 H319" stroke="#F2A65A" stroke-width="2.2" stroke-linecap="round" fill="none"/><polygon points="311,248 319,243 319,253" fill="#F2A65A"/><path d="M175,248 H164" stroke="#F2A65A" stroke-width="2.2" stroke-linecap="round" fill="none"/><polygon points="156,248 164,243 164,253" fill="#F2A65A"/>
  <text x="320" y="322" text-anchor="middle" font-size="12" fill="#5A6478" font-family="Helvetica, Arial, sans-serif">Eight stages, from collection at the kerbside to delivery of finished rolls.</text>
</svg>
